<?xml version="1.0" standalone="no"?>
<!DOCTYPE svg PUBLIC "-//W3C//DTD SVG 20010904//EN"
 "http://www.w3.org/TR/2001/REC-SVG-20010904/DTD/svg10.dtd">
<svg version="1.0" xmlns="http://www.w3.org/2000/svg"
 width="300.000000pt" height="168.000000pt" viewBox="0 0 300.000000 168.000000"
 preserveAspectRatio="xMidYMid meet">
<metadata>
Created by potrace 1.10, written by Peter Selinger 2001-2011
</metadata>
<g transform="translate(0.000000,168.000000) scale(0.100000,-0.100000)"
fill="#000000" stroke="none">
<path d="M2012 1220 c-63 -29 -89 -62 -79 -99 3 -11 5 -9 6 5 1 20 39 64 55
64 4 0 23 7 42 16 19 9 41 14 49 10 8 -3 26 -30 39 -59 l24 -54 58 5 c36 3 80
16 114 32 30 15 76 31 102 34 26 4 61 14 77 22 42 21 95 15 99 -11 3 -20 -60
-95 -80 -95 -5 0 -28 -16 -50 -34 -22 -19 -54 -38 -70 -41 -16 -4 -44 -20 -62
-36 -18 -15 -45 -33 -59 -38 -25 -10 -26 -14 -21 -54 4 -29 0 -64 -15 -111
-28 -90 -27 -106 3 -106 13 0 31 -3 40 -6 29 -11 13 -94 -18 -94 -9 0 -17 -16
-21 -40 -4 -22 -14 -44 -24 -49 -9 -5 -139 -7 -291 -5 -151 2 -282 3 -290 3
-100 -7 -133 -2 -152 22 -16 18 -19 34 -16 71 l5 47 -126 3 -126 3 -3 28 c-3
21 -9 27 -28 27 -16 0 -24 -6 -24 -18 0 -10 -5 -23 -12 -30 -17 -17 -95 -16
-101 1 -3 8 3 49 13 92 17 72 17 80 3 90 -14 11 -14 21 6 103 29 115 41 127
131 127 56 0 73 -4 92 -22 24 -22 57 -26 209 -24 47 1 58 4 62 20 5 21 63 36
107 26 24 -5 35 0 65 29 20 20 45 36 56 36 34 0 78 -29 85 -55 9 -36 -1 -54
-36 -66 -16 -6 -30 -15 -30 -20 0 -15 20 -10 47 11 14 11 33 20 42 20 19 0 72
39 54 40 -6 0 -15 -5 -18 -10 -10 -16 -25 -1 -25 25 0 34 -57 75 -103 75 -26
0 -46 -8 -69 -29 -27 -23 -45 -29 -95 -33 -47 -3 -69 -10 -86 -26 -21 -20 -34
-22 -130 -22 -92 0 -110 3 -126 19 -23 23 -100 34 -161 24 -54 -10 -71 -35
-100 -147 -17 -67 -18 -81 -6 -103 11 -22 10 -37 -6 -106 -17 -75 -17 -81 -2
-98 21 -24 109 -26 141 -4 18 13 22 13 33 0 10 -12 38 -15 126 -15 l114 0 0
-35 c0 -51 24 -91 61 -104 34 -12 713 -16 743 -5 8 3 20 22 27 42 6 21 22 48
35 62 35 38 41 83 15 109 -12 12 -30 21 -41 21 -25 0 -26 29 -5 90 8 23 15 66
15 95 0 52 1 54 52 90 28 21 66 43 83 50 34 15 144 93 188 133 29 27 35 60 15
80 -15 15 -77 16 -115 1 -15 -5 -59 -17 -96 -25 -38 -8 -81 -23 -96 -33 -14
-10 -54 -22 -89 -26 l-62 -7 -24 55 c-35 77 -48 81 -144 37z"/>
<path d="M2515 1169 c-21 -11 -65 -25 -98 -30 -33 -6 -75 -21 -95 -34 -23 -16
-51 -25 -74 -25 -20 0 -48 -4 -61 -9 -31 -12 -105 -83 -91 -88 6 -2 37 10 68
27 89 46 130 38 56 -12 -21 -15 -36 -33 -38 -48 -6 -50 -11 -55 -35 -33 -42
38 -46 33 -19 -21 16 -33 34 -55 44 -55 9 -1 19 -5 22 -10 4 -5 -2 -7 -12 -4
-17 4 -20 -4 -25 -56 -4 -34 -10 -73 -13 -87 -6 -22 -4 -25 12 -22 10 2 22 14
25 28 4 14 13 45 20 70 7 25 13 82 13 128 l0 82 29 0 c21 0 39 10 61 33 18 19
46 37 65 40 35 7 94 46 159 104 44 40 39 49 -13 22z"/>
<path d="M2025 1166 c-16 -6 -36 -15 -42 -19 -20 -12 -15 -55 8 -88 11 -16 18
-36 15 -45 -4 -9 2 -18 17 -23 33 -12 52 -7 55 17 2 11 10 22 19 24 23 4 23
47 2 86 -11 18 -19 39 -19 47 0 17 -12 17 -55 1z m35 -65 c11 -22 13 -64 3
-74 -9 -9 -43 49 -43 73 0 26 26 26 40 1z"/>
<path d="M1782 1064 c-11 -8 -26 -31 -33 -52 -6 -20 -19 -48 -29 -62 -24 -35
-32 -77 -20 -101 11 -19 19 -20 113 -17 56 2 110 7 120 12 12 6 17 4 17 -7 0
-8 21 -34 47 -57 43 -40 45 -45 35 -72 -9 -25 -8 -29 11 -32 12 -3 34 -7 49
-10 15 -4 29 -3 32 2 2 4 8 40 11 80 7 69 7 72 -13 72 -29 0 -45 -30 -25 -45
10 -8 13 -19 9 -33 -9 -28 -23 -28 -31 -1 -4 12 -35 50 -69 85 -59 60 -65 64
-90 54 -33 -12 -66 -13 -66 -1 0 4 40 26 89 47 75 33 86 41 72 51 -22 17 -46
16 -61 -2 -7 -8 -23 -15 -35 -15 -12 0 -28 -7 -35 -15 -7 -8 -22 -15 -34 -15
-12 0 -31 -7 -42 -15 -26 -19 -36 -19 -31 3 3 9 8 38 12 65 6 43 8 47 30 41
48 -12 56 23 11 44 -18 8 -29 7 -44 -4z"/>
<path d="M1126 960 c-9 -29 -18 -67 -22 -86 -5 -30 -4 -34 14 -34 15 0 22 9
27 30 4 17 13 30 20 30 8 0 23 -13 35 -30 12 -16 30 -30 41 -30 23 0 25 13 4
30 -19 16 -19 30 0 30 22 0 47 45 43 77 -3 27 -4 28 -75 31 l-72 3 -15 -51z
m124 0 c0 -17 -7 -20 -44 -20 -39 0 -44 2 -39 20 4 16 14 20 44 20 32 0 39 -3
39 -20z"/>
<path d="M1630 995 c0 -9 9 -15 25 -15 16 0 25 6 25 15 0 9 -9 15 -25 15 -16
0 -25 -6 -25 -15z"/>
<path d="M1329 960 c-9 -5 -22 -23 -29 -39 -18 -45 -1 -68 60 -76 28 -4 53 -5
54 -4 2 2 10 32 18 67 l15 62 -51 0 c-28 0 -58 -5 -67 -10z m67 -36 c-3 -9 -6
-22 -6 -30 0 -9 -11 -14 -30 -14 -34 0 -40 19 -14 44 21 22 58 21 50 0z"/>
<path d="M1475 945 c-14 -13 -25 -35 -25 -49 0 -45 74 -74 112 -43 12 9 38 85
38 111 0 3 -23 6 -50 6 -41 0 -56 -5 -75 -25z m75 -19 c0 -30 -13 -46 -36 -46
-45 0 -22 59 24 60 6 0 12 -6 12 -14z"/>
<path d="M1615 918 c-8 -28 -15 -58 -15 -65 0 -7 -11 -18 -25 -23 -36 -14 -33
-38 4 -32 40 6 54 25 74 99 21 77 21 73 -3 73 -15 0 -23 -12 -35 -52z"/>
<path d="M2083 894 c2 -14 -2 -39 -10 -56 -17 -33 -11 -51 7 -19 6 13 21 21
36 21 l25 0 -22 40 c-26 46 -44 52 -36 14z"/>
<path d="M1127 813 c-10 -18 -39 -154 -34 -160 13 -12 35 7 42 36 5 26 11 30
43 33 26 2 38 8 40 21 3 14 -4 17 -33 17 -25 0 -35 4 -32 13 2 7 24 12 58 12
43 0 54 4 57 18 3 15 -5 17 -67 17 -38 0 -72 -3 -74 -7z"/>
<path d="M1336 748 c-16 -68 -15 -74 1 -85 23 -17 40 -16 47 3 9 22 8 24 -10
24 -12 0 -15 6 -10 23 3 12 6 25 6 30 0 4 9 7 20 7 11 0 20 7 20 15 0 8 -7 15
-16 15 -11 0 -14 6 -9 20 5 15 2 20 -13 20 -16 0 -23 -13 -36 -72z"/>
<path d="M1267 720 c-21 -75 -21 -72 5 -68 17 2 24 12 30 43 4 22 10 50 13 63
4 17 1 22 -13 22 -14 0 -23 -14 -35 -60z"/>
<path d="M1416 722 c-20 -73 -20 -72 3 -72 20 0 24 8 36 68 5 23 12 32 27 32
21 0 21 -10 2 -77 -5 -19 -2 -23 14 -23 16 0 23 11 32 50 17 70 11 80 -48 80
l-49 0 -17 -58z"/>
<path d="M1583 765 c-27 -19 -39 -70 -22 -91 9 -10 27 -14 62 -12 67 4 74 26
10 30 -42 3 -48 6 -45 23 2 11 9 23 15 27 18 11 59 10 52 -2 -3 -5 -15 -10
-26 -10 -10 0 -19 -6 -19 -12 0 -8 14 -13 38 -13 36 0 37 2 40 38 l3 37 -43 0
c-24 0 -53 -7 -65 -15z"/>
<path d="M1720 765 c-19 -23 -8 -49 25 -55 38 -7 29 -26 -11 -22 -21 2 -33 -2
-37 -12 -10 -26 99 -23 113 3 15 29 2 51 -31 51 -16 0 -29 5 -29 10 0 6 18 10
40 10 29 0 40 4 40 15 0 21 -93 21 -110 0z"/>
<path d="M1850 761 c-15 -30 -2 -51 32 -51 19 0 28 -4 25 -12 -2 -8 -18 -12
-40 -10 -28 3 -37 0 -37 -12 0 -22 92 -23 110 -1 21 25 8 50 -28 53 -46 5 -40
20 10 24 66 5 61 28 -6 28 -44 0 -57 -4 -66 -19z"/>
<path d="M1946 609 c-18 -79 -11 -103 28 -97 25 4 35 38 11 38 -12 0 -15 5
-11 16 3 9 6 19 6 24 0 4 9 10 20 13 24 6 27 37 4 37 -11 0 -14 6 -9 20 5 15
2 20 -13 20 -16 0 -23 -13 -36 -71z"/>
<path d="M1522 617 c-29 -30 -29 -82 -2 -97 31 -17 94 -9 98 13 3 14 -4 17
-37 17 -47 0 -60 14 -35 41 11 12 30 19 56 19 27 0 38 4 38 15 0 11 -12 15
-48 15 -38 0 -53 -5 -70 -23z"/>
<path d="M1665 615 c-26 -25 -32 -59 -15 -85 6 -9 27 -14 62 -15 42 0 53 3 56
18 3 14 -4 17 -42 17 -38 0 -46 3 -46 18 0 10 5 23 12 30 15 15 58 16 58 2 0
-5 -11 -10 -25 -10 -16 0 -25 -6 -25 -16 0 -11 9 -14 37 -12 30 2 38 8 44 28
8 35 -7 50 -53 50 -28 0 -46 -7 -63 -25z"/>
<path d="M1801 593 c-7 -26 -14 -56 -17 -66 -5 -15 -1 -18 18 -15 19 2 24 11
32 51 6 37 12 47 28 47 18 0 19 -4 14 -36 -4 -19 -10 -42 -13 -50 -3 -9 2 -14
16 -14 15 0 23 10 31 41 19 71 13 84 -46 87 l-51 3 -12 -48z"/>
<path d="M2045 615 c-25 -24 -32 -59 -16 -84 13 -19 101 -28 112 -10 15 25 10
29 -36 29 -37 0 -45 3 -45 18 0 10 5 23 12 30 14 14 62 16 53 2 -3 -5 -15 -10
-26 -10 -10 0 -19 -7 -19 -15 0 -10 11 -15 35 -15 29 0 36 4 41 25 10 41 -1
55 -46 55 -30 0 -47 -7 -65 -25z"/>
<path d="M2195 630 c-7 -11 -35 -101 -35 -112 0 -5 8 -8 19 -8 14 0 22 11 30
44 7 30 17 45 31 49 32 8 25 37 -9 37 -17 0 -33 -4 -36 -10z"/>
</g>
</svg>
